<svg xmlns:xlink="http://www.w3.org/1999/xlink" xmlns="http://www.w3.org/2000/svg" viewBox="0 0 253.343104 255.23560209424085" fill="none" style="max-height: 500px" width="253.343104" height="255.23560209424085"><linearGradient id="a"><stop stop-color="#0a52e5" offset="0"/><stop stop-color="#2e70f9" offset="1"/></linearGradient><linearGradient y2="124.826" y1="124.826" xlink:href="#a" x2="199.722" x1="-40.7766" gradientUnits="userSpaceOnUse" id="b"/><linearGradient y2="33.2872" y1="33.2872" xlink:href="#a" x2="249.653" x1="-50.9707" gradientUnits="userSpaceOnUse" id="c"/><linearGradient y2="216.365" y1="216.365" xlink:href="#a" x2="249.653" x1="-50.9707" gradientUnits="userSpaceOnUse" id="d"/><path fill="url(#b)" d="m0 158.113.00000079-66.5737h199.72199921v24.9657l-41.609 41.608z"/><path fill="url(#c)" d="m0 66.5742.00000079-66.57400164 249.65299921.00000298v66.57399866h-41.609z"/><path fill="url(#d)" d="m0 249.652.00000079-66.574h249.65299921v66.574h-41.609z"/><path fill-opacity=".15" fill="#000" d="m116.089 158.113 42.024-41.609v41.193l-1.664.416z"/><path fill-opacity=".6" fill="#fff" d="m158.114 116.504h41.609l-41.609 41.609z"/><path fill="#5e5e71" d="m316.366 199.983v-150.0523h93.783v14.6926h-78.465v51.8927h65.96v14.693h-65.96v54.081h78.465v14.693z"/><path fill="#5e5e71" d="m463.253 203.109c-8.475 0-15.596-1.529-21.362-4.585-5.696-3.057-9.968-7.121-12.817-12.192-2.848-5.071-4.272-10.594-4.272-16.568 0-6.113 1.216-11.323 3.647-15.631 2.501-4.376 5.87-7.954 10.108-10.732 4.307-2.779 9.274-4.898 14.901-6.357 5.696-1.389 11.983-2.605 18.861-3.647 6.946-1.111 13.72-2.049 20.319-2.813 6.669-.834 12.504-1.633 17.506-2.397l-5.418 3.334c.208-11.115-1.946-19.347-6.461-24.696s-12.365-8.0232-23.55-8.0232c-7.711 0-14.241 1.7362-19.59 5.2102-5.28 3.473-8.996 8.961-11.15 16.464l-14.901-4.377c2.571-10.072 7.746-17.8877 15.527-23.4452 7.78-5.5575 17.888-8.3362 30.323-8.3362 10.281 0 18.999 1.9451 26.154 5.8354 7.225 3.8207 12.331 9.3782 15.318 16.672 1.39 3.265 2.293 6.913 2.71 10.942.416 4.029.625 8.128.625 12.296v69.92h-13.651v-28.239l3.96 1.667c-3.821 9.656-9.76 17.02-17.819 22.091-8.058 5.071-17.714 7.607-28.968 7.607zm1.771-13.234c7.156 0 13.408-1.285 18.757-3.855 5.349-2.571 9.656-6.079 12.921-10.525 3.265-4.515 5.384-9.587 6.356-15.214.834-3.612 1.285-7.572 1.355-11.879.069-4.376.104-7.641.104-9.795l5.836 3.022c-5.211.695-10.872 1.39-16.986 2.084-6.043.695-12.018 1.494-17.922 2.397-5.836.903-11.115 1.98-15.839 3.23-3.196.903-6.287 2.188-9.274 3.856-2.987 1.597-5.454 3.751-7.399 6.46-1.875 2.709-2.813 6.079-2.813 10.108 0 3.265.799 6.426 2.396 9.482 1.668 3.057 4.308 5.593 7.92 7.607 3.682 2.015 8.545 3.022 14.588 3.022z"/><path fill="#5e5e71" d="m584.683 203.005c-13.199 0-24.071-2.849-32.615-8.545-8.475-5.696-13.685-13.616-15.631-23.758l15.631-2.605c1.667 6.391 5.453 11.497 11.358 15.317 5.974 3.752 13.338 5.627 22.091 5.627 8.545 0 15.283-1.771 20.215-5.314 4.933-3.612 7.399-8.51 7.399-14.693 0-3.473-.799-6.286-2.397-8.44-1.528-2.223-4.689-4.272-9.482-6.148-4.794-1.876-11.949-4.099-21.466-6.669-10.212-2.779-18.201-5.557-23.967-8.336s-9.864-5.974-12.296-9.587c-2.431-3.682-3.647-8.162-3.647-13.442 0-6.391 1.806-11.983 5.419-16.7766 3.612-4.8628 8.614-8.6141 15.005-11.2539 6.391-2.7093 13.824-4.0639 22.299-4.0639s16.048 1.3894 22.716 4.1681c6.739 2.7093 12.157 6.53 16.256 11.4623 4.099 4.932 6.53 10.663 7.294 17.193l-15.63 2.814c-1.042-6.6-4.342-11.81-9.899-15.63-5.488-3.891-12.47-5.9053-20.945-6.0442-7.989-.2084-14.484 1.3199-19.486 4.5852-5.002 3.195-7.503 7.468-7.503 12.817 0 2.987.903 5.557 2.71 7.711 1.806 2.084 5.071 4.064 9.795 5.939 4.793 1.876 11.601 3.925 20.423 6.148 10.351 2.64 18.479 5.419 24.384 8.336 5.905 2.918 10.108 6.357 12.608 10.316 2.501 3.96 3.752 8.858 3.752 14.693 0 10.629-3.96 19-11.879 25.113-7.85 6.044-18.687 9.066-32.512 9.066z"/><path fill="#5e5e71" d="m659.993 250 21.778-59.083.313 17.506-49.288-120.9793h16.255l40.431 101.1813h-6.669l37.305-101.1813h15.63l-60.438 162.5563z"/><g fill="#3e3e52"><path d="m772.035 199.983v-150.0523h63.356c1.459 0 3.404.0694 5.835.2084 2.501.0694 4.724.2778 6.669.6252 8.961 1.3894 16.29 4.3418 21.987 8.8572 5.766 4.5155 10.003 10.2119 12.713 17.0893 2.709 6.8079 4.063 14.4147 4.063 22.8204 0 12.5738-3.126 23.3418-9.378 32.3028-6.252 8.892-16.047 14.38-29.385 16.464l-12.504.834h-35.012v50.851zm84.613 0-29.593-61.063 29.176-5.627 32.512 66.69zm-56.269-77.319h33.761c1.459 0 3.057-.069 4.794-.208 1.736-.139 3.334-.417 4.793-.834 3.821-1.042 6.773-2.779 8.857-5.21 2.084-2.501 3.508-5.245 4.272-8.232.834-3.057 1.251-5.94 1.251-8.6488 0-2.7093-.417-5.5575-1.251-8.5446-.764-3.0566-2.188-5.8007-4.272-8.232-2.084-2.5009-5.036-4.2724-8.857-5.3144-1.459-.4168-3.057-.6947-4.793-.8336-1.737-.139-3.335-.2084-4.794-.2084h-33.761z"/><path d="m959.793 203.109c-11.532 0-21.709-2.466-30.532-7.399-8.753-5.001-15.63-11.844-20.632-20.528-4.932-8.753-7.398-18.756-7.398-30.01 0-12.296 2.431-22.994 7.294-32.094 4.863-9.101 11.566-16.1519 20.111-21.1536 8.545-5.0712 18.374-7.6068 29.489-7.6068 11.81 0 21.848 2.7787 30.115 8.3362s14.38 13.3732 18.34 23.4452c3.96 10.073 5.35 21.918 4.17 35.534h-28.033v-10.421c0-11.462-1.841-19.694-5.523-24.696-3.612-5.071-9.551-7.607-17.818-7.607-9.656 0-16.777 2.953-21.362 8.858-4.515 5.835-6.773 14.484-6.773 25.946 0 10.49 2.258 18.618 6.773 24.384 4.585 5.696 11.289 8.544 20.111 8.544 5.558 0 10.316-1.215 14.276-3.647 3.96-2.431 6.982-5.939 9.066-10.524l28.343 8.128c-4.24 10.281-10.941 18.27-20.111 23.966-9.101 5.697-19.069 8.545-29.906 8.545zm-37.305-51.476v-21.049h74.609v21.049z"/><path d="m1097.63 199.983c-7.78 1.459-15.42 2.084-22.92 1.875-7.44-.139-14.1-1.424-20.01-3.855-5.84-2.501-10.28-6.495-13.34-11.983-2.78-5.141-4.24-10.351-4.37-15.631-.14-5.349-.21-11.393-.21-18.131v-96.0752h28.34v94.4082c0 4.376.04 8.336.1 11.879.14 3.473.87 6.252 2.19 8.336 2.5 3.96 6.5 6.113 11.99 6.46 5.48.348 11.56.07 18.23-.833zm-80.03-90.657v-21.8823h80.03v21.8823z"/><path d="m1118.54 199.983v-112.5393h25.01v27.5093l-2.71-3.543c1.46-3.89 3.41-7.433 5.84-10.628 2.43-3.1959 5.42-5.8357 8.96-7.9198 2.71-1.6672 5.66-2.9524 8.86-3.8555 3.19-.9725 6.49-1.563 9.9-1.7714 3.4-.2779 6.8-.2084 10.21.2084v26.4673c-3.13-.972-6.78-1.285-10.94-.938-4.1.278-7.82 1.216-11.15 2.814-3.34 1.528-6.15 3.577-8.44 6.148-2.3 2.501-4.03 5.488-5.21 8.961-1.19 3.404-1.78 7.26-1.78 11.567v57.52z"/><path d="m1248.87 203.109c-11.33 0-21.26-2.536-29.8-7.607-8.55-5.071-15.22-12.053-20.01-20.945-4.73-8.961-7.09-19.243-7.09-30.844 0-11.74 2.43-22.056 7.3-30.948 4.86-8.961 11.56-15.9431 20.11-20.9448 8.54-5.0017 18.37-7.5026 29.49-7.5026 11.32 0 21.25 2.5356 29.8 7.6068 8.61 5.0712 15.32 12.0876 20.11 21.0486 4.79 8.892 7.19 19.139 7.19 30.74 0 11.671-2.43 21.987-7.29 30.948-4.8 8.892-11.5 15.874-20.11 20.945-8.55 5.002-18.45 7.503-29.7 7.503zm0-26.468c9.1 0 15.87-3.056 20.32-9.17 4.51-6.182 6.77-14.102 6.77-23.758 0-10.003-2.29-17.992-6.88-23.966-4.51-5.975-11.25-8.962-20.21-8.962-6.19 0-11.26 1.389-15.22 4.168s-6.91 6.634-8.85 11.567c-1.88 4.932-2.82 10.663-2.82 17.193 0 10.073 2.26 18.097 6.78 24.071 4.58 5.905 11.28 8.857 20.11 8.857z"/></g></svg>