<?xml version="1.0" encoding="UTF-8"?>
<svg version="1.1" xmlns="http://www.w3.org/2000/svg" width="348" height="413">
<path d="M0 0 C4.01643581 1.36242003 6.69788687 4.42437358 9.61045837 7.36994934 C10.44333786 8.20026555 10.44333786 8.20026555 11.2930432 9.04735583 C13.1531923 10.90420969 15.00610102 12.76812356 16.85913086 14.63208008 C18.19106312 15.96457648 19.52343593 17.29663265 20.85621643 18.62828064 C24.47639469 22.2478842 28.09036467 25.87362998 31.70327449 29.50048661 C35.48501281 33.29472507 39.27241316 37.083303 43.05921936 40.8724823 C50.23595919 48.05544368 57.40758673 55.24348696 64.57739979 62.43336171 C72.71908328 70.59733778 80.86638843 78.75569355 89.01420009 86.91355288 C102.94438844 100.86111664 116.87034532 114.81289361 130.79159546 128.76937866 C131.38020011 129.3594625 131.96880476 129.94954634 132.57524592 130.55751151 C133.65476386 131.63976527 134.73425093 132.72204982 135.81369823 133.80437404 C137.20889795 135.20314967 138.60444087 136.60158296 140 138 C140.884199 138.88971339 141.768398 139.77942678 142.67939091 140.69610119 C144.84639586 142.84750194 147.07808697 144.90522067 149.35058594 146.94433594 C154.00910607 151.12536522 158.32677457 155.34569305 162.34375 160.16015625 C164.73037489 162.81133626 167.42974753 165.02637651 170.203125 167.26171875 C172.30183969 169.29199709 173.5398212 171.48373482 175 174 C163.3497303 185.76696172 151.68527497 197.51964382 140.00362015 209.25544071 C134.58021254 214.70465324 129.1615898 220.15847022 123.75390625 225.62329102 C119.04171847 230.3852437 114.32086965 235.1384047 109.58931994 239.88112253 C107.08321278 242.39376019 104.58172518 244.91064363 102.09055328 247.438097 C99.31250864 250.2562723 96.51516957 253.05478421 93.71582031 255.85180664 C92.88863495 256.69696838 92.06144958 257.54213013 91.209198 258.41290283 C90.44642548 259.16880203 89.68365295 259.92470123 88.89776611 260.70350647 C88.23776234 261.36811921 87.57775856 262.03273195 86.89775467 262.71748447 C85 264 85 264 82.93830872 263.86540222 C79.57303995 262.36290108 77.21780904 259.60541848 74.67089844 257.01147461 C74.04608582 256.38710007 73.42127319 255.76272552 72.77752686 255.11943054 C70.71428582 253.05409966 68.66187359 250.97834614 66.609375 248.90234375 C65.18085101 247.46822453 63.75166319 246.03476627 62.32183838 244.60194397 C58.56035146 240.82900267 54.80796045 237.04713897 51.05737305 233.2633667 C47.22858218 229.40388798 43.39128479 225.55288776 39.5546875 221.70117188 C32.02809348 214.14240321 24.51107845 206.57418433 17 199 C18.76504272 195.99256477 20.30093209 193.44350716 22.92578125 191.1328125 C23.47210205 190.64321045 24.01842285 190.1536084 24.58129883 189.64916992 C25.15259521 189.14619385 25.7238916 188.64321777 26.3125 188.125 C30.37986841 184.46821767 34.16859424 180.84957029 37.60546875 176.58203125 C39.89135143 173.988803 42.56473095 171.85070013 45.1953125 169.6171875 C47.14508617 167.95927565 47.14508617 167.95927565 49 165.5 C50.85436031 163.18204961 52.68631471 161.47831318 54.9375 159.5625 C58.3905455 156.61934346 61.21143737 153.57284587 64 150 C60.20301491 145.46479694 56.28288646 141.13986003 52.08642578 136.97290039 C51.25118126 136.13743683 51.25118126 136.13743683 50.39906311 135.28509521 C48.58351 133.47023101 46.76445606 131.65892089 44.9453125 129.84765625 C43.67571469 128.57992626 42.40633952 127.31197327 41.13717651 126.04380798 C37.81532426 122.72575224 34.49047867 119.41071211 31.16497803 116.09631348 C27.76440491 112.70601645 24.36670263 109.31284494 20.96875 105.91992188 C14.31528981 99.27714838 7.65866041 92.63756054 1 86 C-3.13625009 87.63065645 -5.89956599 90.63223452 -8.96191406 93.73486328 C-9.5477124 94.32036957 -10.13351074 94.90587585 -10.73706055 95.50912476 C-12.66802839 97.44148356 -14.59181947 99.38082516 -16.515625 101.3203125 C-17.85468611 102.66310456 -19.19419009 104.00545513 -20.53411865 105.34738159 C-24.05664429 108.87753717 -27.57312203 112.41365806 -31.08837891 115.9510498 C-34.67768551 119.56082851 -38.27267256 123.16494015 -41.8671875 126.76953125 C-48.91703318 133.84081558 -55.96050337 140.91841413 -63 148 C-61.40914795 151.87123869 -58.92976091 154.31920939 -55.98950195 157.25773621 C-55.21726398 158.0335958 -55.21726398 158.0335958 -54.42942524 158.82512933 C-52.70376784 160.55642081 -50.97105686 162.2804737 -49.23828125 164.00463867 C-47.99944521 165.24454765 -46.76104225 166.48488946 -45.52304077 167.72563171 C-42.15993463 171.09358675 -38.790609 174.45525604 -35.42000961 177.81570983 C-31.89692315 181.3300188 -28.37910366 184.84959266 -24.8605957 188.3684845 C-18.9524603 194.27568327 -13.04046366 200.17899512 -7.12597656 206.07983398 C-0.28117621 212.90889795 6.55837256 219.74318538 13.39494228 226.58048838 C19.96525663 233.15141235 26.53842054 239.71947758 33.1131897 246.28594398 C35.91457431 249.08379182 38.71510243 251.88249291 41.51498413 254.68184471 C44.80889786 257.97475639 48.10534134 261.26511457 51.40378952 264.55348396 C52.61646254 265.76322806 53.82828279 266.97382766 55.03920364 268.18532562 C56.68700351 269.83361374 58.33782842 271.4788096 59.98950195 273.12321472 C60.91422806 274.04626498 61.83895416 274.96931524 62.79170227 275.92033672 C64.8191124 278.02940571 64.8191124 278.02940571 67 279 C66.12634537 283.66306907 63.29243049 286.10763581 60.01147461 289.32910156 C59.38710007 289.95391418 58.76272552 290.57872681 58.11943054 291.22247314 C56.05409966 293.28571418 53.97834614 295.33812641 51.90234375 297.390625 C50.46822453 298.81914899 49.03476627 300.24833681 47.60194397 301.67816162 C43.82900267 305.43964854 40.04713897 309.19203955 36.2633667 312.94262695 C32.40388798 316.77141782 28.55288776 320.60871521 24.70117188 324.4453125 C17.14240321 331.97190652 9.57418433 339.48892155 2 347 C-4.43291062 343.94195684 -8.60972746 339.37754523 -13.1484375 334.0390625 C-15.54586801 331.39885422 -18.20444223 329.17221704 -20.92431641 326.87402344 C-22.87451795 325.11329101 -24.54132654 323.30983051 -26.234375 321.3046875 C-30.05213845 316.88186762 -34.10847375 312.74334607 -38.25 308.625 C-38.95640625 307.91472656 -39.6628125 307.20445312 -40.390625 306.47265625 C-41.07125 305.79332031 -41.751875 305.11398437 -42.453125 304.4140625 C-43.06317383 303.8051416 -43.67322266 303.1962207 -44.30175781 302.56884766 C-46.12078564 300.80597426 -46.12078564 300.80597426 -49 299 C-49 298.34 -49 297.68 -49 297 C-49.66 297 -50.32 297 -51 297 C-52.2265625 295.71484375 -52.2265625 295.71484375 -53.625 293.9375 C-55.81833048 291.28436289 -58.04453312 289.01587691 -60.6875 286.8125 C-64.85527385 283.28592213 -68.4491973 279.34801798 -72.05541992 275.26293945 C-74.19804713 272.85940917 -76.30087777 270.76220281 -78.83203125 268.76171875 C-79.90517578 267.88966797 -79.90517578 267.88966797 -81 267 C-81 266.34 -81 265.68 -81 265 C-81.66 265 -82.32 265 -83 265 C-84.515625 263.42578125 -84.515625 263.42578125 -86.25 261.3125 C-88.41203482 258.76022238 -90.4998416 256.44928319 -93.125 254.375 C-95.65562313 252.28448524 -97.54724749 250.17114975 -99.57421875 247.609375 C-101.86968852 245.0183242 -104.55127501 242.89322533 -107.23046875 240.7109375 C-109.07867287 238.9239322 -109.99940744 237.3501097 -111 235 C-111.66 235 -112.32 235 -113 235 C-114.4453125 233.49609375 -114.4453125 233.49609375 -116.125 231.4375 C-118.59014761 228.52739836 -121.0836023 225.95680973 -124 223.5 C-127.45036677 220.58045889 -130.30449013 217.4128753 -133.21875 213.96875 C-135.0327946 211.96375334 -136.93707677 210.24555043 -139 208.5 C-142.45036677 205.58045889 -145.30449013 202.4128753 -148.21875 198.96875 C-150.0327946 196.96375334 -151.93707677 195.24555043 -154 193.5 C-157.43960511 190.5895649 -160.2871152 187.43417326 -163.19140625 184 C-166.18476578 180.68984864 -169.57265086 177.84870578 -173 175 C-172.46115292 171.1775535 -170.94772136 169.76475982 -168 167.375 C-165.04427685 165.05444701 -165.04427685 165.05444701 -163 162 C-162.34 162 -161.68 162 -161 162 C-161 161.34 -161 160.68 -161 160 C-156.977075 155.67163069 -152.50692205 151.7838837 -148.109375 147.84179688 C-145.15625262 145.24113923 -145.15625262 145.24113923 -143 142 C-142.34 142 -141.68 142 -141 142 C-140.76667969 141.42765625 -140.53335938 140.8553125 -140.29296875 140.265625 C-138.69219161 137.46063786 -136.76933349 135.84188273 -134.3125 133.75 C-130.42378099 130.34667347 -127.03246898 126.84373076 -123.7109375 122.8984375 C-121.33934889 120.26694876 -118.66894577 118.06603104 -115.96875 115.78125 C-113.96375334 113.9672054 -112.24555043 112.06292323 -110.5 110 C-107.58045889 106.54963323 -104.4128753 103.69550987 -100.96875 100.78125 C-98.96375334 98.9672054 -97.24555043 97.06292323 -95.5 95 C-93.16233211 92.23730159 -90.76269841 89.83766789 -88 87.5 C-85.25943294 85.18024938 -82.87829418 82.80615453 -80.5625 80.0625 C-77.39887507 76.32236027 -73.89557206 73.20634195 -70.1953125 70.0078125 C-67.43727114 67.48533339 -65.08738741 64.71870306 -62.6796875 61.8671875 C-60.55407824 59.50430092 -58.19213422 57.56908813 -55.7421875 55.5546875 C-53.84987588 53.86603273 -52.26072758 52.06224418 -50.625 50.125 C-47.43748441 46.36573273 -43.91821896 43.22591808 -40.1953125 40.0078125 C-37.44525522 37.49263556 -35.10081732 34.73648411 -32.703125 31.890625 C-30.46369743 29.40465494 -27.98813564 27.31783085 -25.3828125 25.2265625 C-23.85896891 24.02824461 -23.85896891 24.02824461 -23 22 C-22.34 22 -21.68 22 -21 22 C-20.77828125 21.43925781 -20.5565625 20.87851562 -20.328125 20.30078125 C-18.58980683 17.28940065 -16.37355055 15.46339426 -13.75 13.1875 C-9.42157778 9.35262002 -5.68471754 5.44055703 -2 1 C-1.34 0.67 -0.68 0.34 0 0 Z " fill="#CB3131" transform="translate(173,0)"/>
<path d="M0 0 C0 0.66 0 1.32 0 2 C0.54140625 2.2165625 1.0828125 2.433125 1.640625 2.65625 C4.81645344 4.46499997 7.20728081 6.91723799 9.75 9.5 C10.25660156 9.99886719 10.76320312 10.49773437 11.28515625 11.01171875 C15 14.74658861 15 14.74658861 15 17 C15.53625 17.20625 16.0725 17.4125 16.625 17.625 C19.91978009 19.53250426 22.59363628 22.04819384 25 25 C25 25.66 25 26.32 25 27 C25.66 27 26.32 27 27 27 C28.71183946 28.62023493 30.371965 30.29557705 32 32 C32.74932454 32.74932454 33.49864908 33.49864908 34.27068043 34.27068043 C68.84712029 68.84712029 103.42356014 103.42356014 138 138 C141.99297145 136.39727953 144.65754641 133.6024185 147.6171875 130.5896759 C148.17314606 130.03189837 148.72910461 129.47412083 149.3019104 128.89944094 C151.16438691 127.0285481 153.01960639 125.15062037 154.875 123.27270508 C156.20851726 121.93043888 157.54251351 120.58864842 158.87695312 119.24729919 C161.74977721 116.35798206 164.61961149 113.46573867 167.48730469 110.57132912 C172.01865973 105.99866065 176.55919945 101.43518911 181.1015625 96.87345886 C194.01683282 83.90056382 206.92203568 70.91771095 219.8125 57.92016602 C226.93174546 50.74194009 234.05983673 43.57262204 241.19784546 36.41305274 C245.71952937 31.87668918 250.22988624 27.32944093 254.73236084 22.77401507 C257.53036294 19.94836462 260.33869531 17.13316517 263.15014648 14.32090187 C264.45583111 13.01063079 265.75718992 11.69603327 267.05395508 10.37693405 C268.81897724 8.58274242 270.59857646 6.80442743 272.3828125 5.02937317 C272.89760162 4.4986556 273.41239075 3.96793803 273.94277954 3.42113811 C275.39501953 1.99532795 275.39501953 1.99532795 278 0 C281.98960764 0.12417251 283.95422766 2.56732348 286.6953125 5.296875 C287.57574219 6.1734375 288.45617187 7.05 289.36328125 7.953125 C290.27464844 8.87609375 291.18601562 9.7990625 292.125 10.75 C293.04410156 11.6575 293.96320313 12.565 294.91015625 13.5 C295.78800781 14.38171875 296.66585938 15.2634375 297.5703125 16.171875 C298.37227051 16.9772168 299.17422852 17.78255859 300.00048828 18.61230469 C302.02939298 21.03509931 302.90844633 23.06754162 304 26 C283.33434031 46.77966695 262.65593869 67.54658086 241.95961659 88.29571006 C239.5174975 90.74408285 237.07548751 93.19256444 234.63354492 95.64111328 C234.14738627 96.12858349 233.66122761 96.6160537 233.16033687 97.11829573 C225.28372438 105.01667824 217.41598747 112.92384545 209.55148248 120.8342815 C201.48450602 128.94797824 193.40792002 137.0519916 185.32281417 145.14762831 C180.78059023 149.69638338 176.24290452 154.24947035 171.71558571 158.81306458 C167.45744957 163.10504297 163.1878303 167.38524618 158.90897369 171.65656471 C157.33765598 173.22926222 155.77064446 174.80627532 154.20821953 176.38780785 C152.07992751 178.54085176 149.93691063 180.67805747 147.78938293 182.81188965 C147.16972257 183.44611422 146.5500622 184.08033879 145.91162425 184.73378229 C141.65933503 188.91279992 141.65933503 188.91279992 138.07566357 189.3867569 C137.39069459 189.25912712 136.70572561 189.13149734 136 189 C136 188.34 136 187.68 136 187 C135.40136666 186.72629094 134.80273332 186.45258188 134.18595958 186.1705786 C132.07201352 185.03856315 130.70776307 183.95651348 129.02464676 182.27074242 C128.46282267 181.71290042 127.90099858 181.15505843 127.32214952 180.58031213 C126.7151401 179.96747704 126.10813069 179.35464194 125.48272705 178.72323608 C124.83002453 178.07224241 124.177322 177.42124873 123.50484061 176.75052798 C121.31517555 174.56416171 119.13274338 172.37071528 116.95019531 170.17724609 C115.3835523 168.61003905 113.81646898 167.04327204 112.24897766 165.47691345 C107.99072769 161.21923832 103.738681 156.95541603 99.48769855 152.69048643 C95.0456407 148.2359431 90.59793483 143.78704657 86.15081787 139.33755493 C78.68602543 131.86724855 71.22473542 124.39345816 63.76611328 116.91699219 C56.08388738 109.21640664 48.3995625 101.51792567 40.71240234 93.82226562 C40.23852094 93.34785878 39.76463954 92.87345193 39.27639809 92.38466911 C36.89904773 90.00470866 34.52165601 87.62478952 32.14424372 85.24489093 C12.42317233 65.50290307 -7.2907516 45.75379075 -27 26 C-24.40264349 20.44313015 -19.90866521 16.5745615 -15.61450195 12.29882812 C-14.06240485 10.74990505 -12.52413858 9.1880929 -10.98632812 7.625 C-10.00341511 6.63981526 -9.01971763 5.65541242 -8.03515625 4.671875 C-7.1419165 3.7756543 -6.24867676 2.87943359 -5.32836914 1.95605469 C-3 0 -3 0 0 0 Z " fill="#CB3434" transform="translate(35,223)"/>
<path d="M0 0 C0.99 0 1.98 0 3 0 C3 0.66 3 1.32 3 2 C3.54140625 2.2165625 4.0828125 2.433125 4.640625 2.65625 C7.81645344 4.46499997 10.20728081 6.91723799 12.75 9.5 C13.25660156 9.99886719 13.76320313 10.49773437 14.28515625 11.01171875 C18 14.74658861 18 14.74658861 18 17 C18.88945313 17.38285156 18.88945313 17.38285156 19.796875 17.7734375 C22.21224538 19.11816498 23.51211706 20.49214367 25.25 22.625 C25.77078125 23.25664062 26.2915625 23.88828125 26.828125 24.5390625 C27.40820312 25.26222656 27.40820312 25.26222656 28 26 C25.21788056 25.62403791 23.4120716 25.32681541 21.1875 23.5625 C20 22 20 22 20 20 C19.34 20 18.68 20 18 20 C17.773125 19.360625 17.54625 18.72125 17.3125 18.0625 C16.14749104 15.72806339 16.14749104 15.72806339 13.375 15.25 C12.59125 15.1675 11.8075 15.085 11 15 C10.67 14.01 10.34 13.02 10 12 C10.33 11.34 10.66 10.68 11 10 C10.0409375 9.8453125 10.0409375 9.8453125 9.0625 9.6875 C8.0415625 9.3471875 8.0415625 9.3471875 7 9 C6.67 8.01 6.34 7.02 6 6 C3.99983534 4.79117904 3.99983534 4.79117904 2 4 C2 3.34 2 2.68 2 2 C0.35 2.66 -1.3 3.32 -3 4 C-1.6875 2 -1.6875 2 0 0 Z " fill="#D17171" transform="translate(32,223)"/>
<path d="M0 0 C0 3 0 3 -1 6 C-1.66 6.66 -2.32 7.32 -3 8 C-3.28875 8.99 -3.5775 9.98 -3.875 11 C-5 14 -5 14 -6.875 15.375 C-9 16 -9 16 -13 16 C-13.33 16.99 -13.66 17.98 -14 19 C-15.65 19.33 -17.3 19.66 -19 20 C-13.17371096 12.84198775 -6.5617015 6.47408234 0 0 Z " fill="#C93A39" transform="translate(272,264)"/>
<path d="M0 0 C0.33 0.66 0.66 1.32 1 2 C1.66 2 2.32 2 3 2 C1.48623919 5.56764285 -0.60513129 7.83706287 -3.3515625 10.546875 C-4.20234375 11.39121094 -5.053125 12.23554688 -5.9296875 13.10546875 C-6.81914062 13.97816406 -7.70859375 14.85085938 -8.625 15.75 C-9.5221875 16.63816406 -10.419375 17.52632813 -11.34375 18.44140625 C-13.55807004 20.63216969 -15.77692435 22.81812763 -18 25 C-18.58984375 23.171875 -18.58984375 23.171875 -19 21 C-17.5625 18.25 -17.5625 18.25 -16 16 C-15.67 16.66 -15.34 17.32 -15 18 C-14.34 18 -13.68 18 -13 18 C-13 17.01 -13 16.02 -13 15 C-12.34 15 -11.68 15 -11 15 C-10.7525 14.360625 -10.505 13.72125 -10.25 13.0625 C-9 11 -9 11 -6.875 10.25 C-5.946875 10.12625 -5.946875 10.12625 -5 10 C-4.67 8.35 -4.34 6.7 -4 5 C-3.01 4.67 -2.02 4.34 -1 4 C-0.26676204 1.98491642 -0.26676204 1.98491642 0 0 Z " fill="#C44649" transform="translate(221,294)"/>
<path d="M0 0 C2.64344978 1.2607222 4.26505394 2.91424413 6.28125 5.03125 C6.98765625 5.76472656 7.6940625 6.49820313 8.421875 7.25390625 C8.95296875 7.81980469 9.4840625 8.38570312 10.03125 8.96875 C6.62348168 10.67263416 3.25311472 8.65537078 -0.2421875 7.5625 C-3.03248028 6.95487177 -4.30303773 7.17021064 -6.96875 7.96875 C-7.62875 7.63875 -8.28875 7.30875 -8.96875 6.96875 C-7.90158928 5.76669536 -6.81436663 4.58242667 -5.71875 3.40625 C-5.11546875 2.74496094 -4.5121875 2.08367187 -3.890625 1.40234375 C-1.96875 -0.03125 -1.96875 -0.03125 0 0 Z " fill="#CE4D50" transform="translate(314.96875,223.03125)"/>
<path d="M0 0 C1.98 0.495 1.98 0.495 4 1 C4 1.66 4 2.32 4 3 C5.32 3.66 6.64 4.32 8 5 C8 5.99 8 6.98 8 8 C8.33 8.66 8.66 9.32 9 10 C10.65 10 12.3 10 14 10 C14 11.98 14 13.96 14 16 C10.1775045 16 9.06651305 14.51075252 6.421875 11.9296875 C5.87015625 11.37539063 5.3184375 10.82109375 4.75 10.25 C4.1828125 9.71117187 3.615625 9.17234375 3.03125 8.6171875 C1.421875 7.015625 1.421875 7.015625 -1 4 C-0.65136719 1.81152344 -0.65136719 1.81152344 0 0 Z " fill="#C83539" transform="translate(129,298)"/>
<path d="M0 0 C0.33 0.66 0.66 1.32 1 2 C-0.1875 4.5625 -0.1875 4.5625 -2 7 C-3.32594105 7.36162029 -4.65938457 7.69728039 -6 8 C-7.28436734 9.9837767 -7.28436734 9.9837767 -8 12 C-7.01 11.67 -6.02 11.34 -5 11 C-4.67 12.65 -4.34 14.3 -4 16 C-5.6875 16.6875 -5.6875 16.6875 -8 17 C-10.75 15.5625 -10.75 15.5625 -13 14 C-10.81781061 9.91836336 -8.29492732 7.21766403 -4.8125 4.1875 C-3.91144531 3.39730469 -3.01039063 2.60710937 -2.08203125 1.79296875 C-1.39496094 1.20128906 -0.70789063 0.60960937 0 0 Z " fill="#C33738" transform="translate(203,185)"/>
<path d="M0 0 C-1.56353316 3.83776322 -3.83471431 6.34999338 -7 9 C-9.8125 9.3125 -9.8125 9.3125 -12 9 C-12 8.34 -12 7.68 -12 7 C-13.32 6.34 -14.64 5.68 -16 5 C-14.125 4.375 -14.125 4.375 -12 4 C-11.34 4.66 -10.68 5.32 -10 6 C-10 4.35 -10 2.7 -10 1 C-6.59437148 0.22157062 -3.49234244 -0.09978121 0 0 Z " fill="#C84848" transform="translate(183,403)"/>
<path d="M0 0 C0.226875 0.639375 0.45375 1.27875 0.6875 1.9375 C1.82682205 4.26012621 1.82682205 4.26012621 4.4375 4.5625 C5.283125 4.706875 6.12875 4.85125 7 5 C8.8125 6.5625 8.8125 6.5625 10 8 C10.66 7.67 11.32 7.34 12 7 C11.979375 7.763125 11.95875 8.52625 11.9375 9.3125 C11.87057159 12.10185786 11.87057159 12.10185786 13 15 C13.66 15.33 14.32 15.66 15 16 C14.34 16.33 13.68 16.66 13 17 C7.12542247 12.41496388 2.14230118 7.21345177 -2 1 C-1.34 0.67 -0.68 0.34 0 0 Z " fill="#C34649" transform="translate(99,269)"/>
<path d="M0 0 C1 2 1 2 1 5 C0.360625 5.28875 -0.27875 5.5775 -0.9375 5.875 C-3.15206079 6.82823451 -3.15206079 6.82823451 -4 9 C-4.66 9 -5.32 9 -6 9 C-6.28875 9.5775 -6.5775 10.155 -6.875 10.75 C-7.91666667 12.83333333 -8.95833333 14.91666667 -10 17 C-11.65 16.67 -13.3 16.34 -15 16 C-10.30233025 10.33870569 -5.25276628 5.14771096 0 0 Z " fill="#C54649" transform="translate(238,298)"/>
<path d="M0 0 C0 3.60777515 -0.9904432 5.06295544 -3 8 C-3.99 8.495 -3.99 8.495 -5 9 C-5.65772428 12.02934491 -5.65772428 12.02934491 -6 15 C-7.32 15 -8.64 15 -10 15 C-10 14.34 -10 13.68 -10 13 C-10.66 12.67 -11.32 12.34 -12 12 C-8.04 8.04 -4.08 4.08 0 0 Z " fill="#CA3C3E" transform="translate(305,231)"/>
<path d="M0 0 C4.82029598 3.85623679 4.82029598 3.85623679 5.33203125 7.11328125 C5.3145776 9.07856214 5.16596091 11.04166127 5 13 C2.69110584 11.84555292 1.6593357 10.59131281 0 8.625 C-0.515625 8.01914063 -1.03125 7.41328125 -1.5625 6.7890625 C-3 5 -3 5 -5 2 C-3.35 2 -1.7 2 0 2 C0 1.34 0 0.68 0 0 Z " fill="#CC4444" transform="translate(234,138)"/>
<path d="M0 0 C1.98 0 3.96 0 6 0 C6.66 1.32 7.32 2.64 8 4 C8.99 4 9.98 4 11 4 C11 5.32 11 6.64 11 8 C12.32 8.33 13.64 8.66 15 9 C15.33 10.65 15.66 12.3 16 14 C12.59152105 11.14159258 9.32113243 8.35100521 6.3125 5.0625 C5.549375 4.381875 4.78625 3.70125 4 3 C1.72476911 3.04497842 1.72476911 3.04497842 0 4 C0 2.68 0 1.36 0 0 Z " fill="#D1686A" transform="translate(170,83)"/>
<path d="M0 0 C1.32 1.65 2.64 3.3 4 5 C0.7 8.3 -2.6 11.6 -6 15 C-6.66 14.01 -7.32 13.02 -8 12 C-7.01 12 -6.02 12 -5 12 C-5 10.68 -5 9.36 -5 8 C-5 7.01 -5 6.02 -5 5 C-4.01 5.33 -3.02 5.66 -2 6 C-2 5.01 -2 4.02 -2 3 C-1.34 3 -0.68 3 0 3 C0 2.01 0 1.02 0 0 Z " fill="#C54545" transform="translate(344,169)"/>
<path d="M0 0 C7.48291572 6.15034169 7.48291572 6.15034169 10 10 C9.01 10.495 9.01 10.495 8 11 C8 10.34 8 9.68 8 9 C6.02 9.66 4.04 10.32 2 11 C0.57741188 7.17679443 -0.24042276 4.08718695 0 0 Z " fill="#C63E40" transform="translate(188,229)"/>
<path d="M0 0 C0 2.83967231 -0.40267181 5.23735711 -1 8 C-4.74161103 8 -8.28953557 7.48661829 -12 7 C-11.67 5.68 -11.34 4.36 -11 3 C-9.68 3.66 -8.36 4.32 -7 5 C-6.401875 4.360625 -5.80375 3.72125 -5.1875 3.0625 C-3 1 -3 1 0 0 Z " fill="#C94B4B" transform="translate(182,356)"/>
<path d="M0 0 C4.91935902 4.11619836 9.52647956 8.40410362 14 13 C13.34 13.66 12.68 14.32 12 15 C12 14.34 12 13.68 12 13 C11.360625 12.87625 10.72125 12.7525 10.0625 12.625 C9.381875 12.41875 8.70125 12.2125 8 12 C7.67 11.34 7.34 10.68 7 10 C6.01 9.566875 6.01 9.566875 5 9.125 C3 8 3 8 2.25 5.875 C2.1675 5.25625 2.085 4.6375 2 4 C1.34 4 0.68 4 0 4 C0 2.68 0 1.36 0 0 Z " fill="#C14742" transform="translate(229,55)"/>
<path d="M0 0 C0.99 0 1.98 0 3 0 C1.41332422 3.90285767 -1.13350481 6.33520982 -4.125 9.25 C-5.03507812 10.14203125 -5.94515625 11.0340625 -6.8828125 11.953125 C-7.58148438 12.62859375 -8.28015625 13.3040625 -9 14 C-9.33 13.01 -9.66 12.02 -10 11 C-9.34 11 -8.68 11 -8 11 C-8.33 9.68 -8.66 8.36 -9 7 C-8.34 6.67 -7.68 6.34 -7 6 C-7 6.66 -7 7.32 -7 8 C-6.34 8 -5.68 8 -5 8 C-5 7.01 -5 6.02 -5 5 C-4.34 5 -3.68 5 -3 5 C-2.690625 4.360625 -2.38125 3.72125 -2.0625 3.0625 C-1 1 -1 1 0 0 Z " fill="#C3484B" transform="translate(277,240)"/>
<path d="M0 0 C0 2.96200864 -0.06343771 5.19031313 -1 8 C-3.1875 9.0625 -3.1875 9.0625 -6 10 C-8.02456848 11.29572383 -10.02678947 12.6273318 -12 14 C-12.99 14.66 -13.98 15.32 -15 16 C-13.69113024 13.07299167 -12.33773912 11.12815685 -9.9609375 8.984375 C-9.38085938 8.45585938 -8.80078125 7.92734375 -8.203125 7.3828125 C-7.59984375 6.84398437 -6.9965625 6.30515625 -6.375 5.75 C-5.76398438 5.19570313 -5.15296875 4.64140625 -4.5234375 4.0703125 C-3.02043435 2.7082159 -1.5108532 1.35338399 0 0 Z " fill="#CA5C5D" transform="translate(135,38)"/>
<path d="M0 0 C0 1.98 0 3.96 0 6 C-0.66 6 -1.32 6 -2 6 C-0.16343011 8.96731398 -0.16343011 8.96731398 2 11 C1.67 11.66 1.34 12.32 1 13 C-1.84383123 11.7251791 -4.13754018 10.54862922 -6 8 C-5.90429204 5.03305317 -4.98288685 3.9807477 -3 1.75 C-1 0 -1 0 0 0 Z " fill="#D26768" transform="translate(6,167)"/>
<path d="M0 0 C0.66 0.99 1.32 1.98 2 3 C1.48050781 3.37511719 0.96101563 3.75023438 0.42578125 4.13671875 C-3.72252449 7.18085439 -7.47321686 10.25279291 -11 14 C-11.66 13.67 -12.32 13.34 -13 13 C-11.21188257 11.01752198 -9.41974481 9.03896272 -7.625 7.0625 C-7.11710937 6.49853516 -6.60921875 5.93457031 -6.0859375 5.35351562 C-2.2265625 1.11328125 -2.2265625 1.11328125 0 0 Z " fill="#C85A5C" transform="translate(69,104)"/>
<path d="M0 0 C0.66 0 1.32 0 2 0 C1.52590352 4.31730413 -1.03396703 6.33647461 -4.0625 9.25 C-4.98160156 10.14203125 -5.90070313 11.0340625 -6.84765625 11.953125 C-7.55792969 12.62859375 -8.26820312 13.3040625 -9 14 C-9.66 13.01 -10.32 12.02 -11 11 C-10.34 11 -9.68 11 -9 11 C-9 10.34 -9 9.68 -9 9 C-8.01 9 -7.02 9 -6 9 C-6 7.68 -6 6.36 -6 5 C-5.34 5 -4.68 5 -4 5 C-3.34 4.01 -2.68 3.02 -2 2 C-1.34 2 -0.68 2 0 2 C0 1.34 0 0.68 0 0 Z " fill="#D1696C" transform="translate(124,129)"/>
<path d="M0 0 C0.99 0 1.98 0 3 0 C2.37344168 2.92393881 1.5838192 5.44829129 0 8 C-0.99 8.33 -1.98 8.66 -3 9 C-3.66 9.66 -4.32 10.32 -5 11 C-5.6875 9.25 -5.6875 9.25 -6 7 C-4.6875 4.75 -4.6875 4.75 -3 3 C-2.34 3 -1.68 3 -1 3 C-0.67 2.01 -0.34 1.02 0 0 Z " fill="#CE2F2D" transform="translate(235,304)"/>
<path d="M0 0 C1.65 0 3.3 0 5 0 C4.319375 0.7425 3.63875 1.485 2.9375 2.25 C0.71646324 4.75949064 0.71646324 4.75949064 1.25 7.3125 C1.4975 7.869375 1.745 8.42625 2 9 C0.02 9.33 -1.96 9.66 -4 10 C-3.29445932 6.33118845 -1.72264494 3.29549466 0 0 Z " fill="#C4393E" transform="translate(109,143)"/>
<path d="M0 0 C0.99 0.33 1.98 0.66 3 1 C0.33333333 3.66666667 -2.33333333 6.33333333 -5 9 C-5.33 8.67 -5.66 8.34 -6 8 C-6.33 8.99 -6.66 9.98 -7 11 C-8.32 10.67 -9.64 10.34 -11 10 C-5.555 5.05 -5.555 5.05 0 0 Z " fill="#C85355" transform="translate(88,85)"/>
<path d="M0 0 C0.66 0.33 1.32 0.66 2 1 C1.42424336 4.35250701 0.40693737 5.93818629 -2.0625 8.25 C-2.61035156 8.77078125 -3.15820312 9.2915625 -3.72265625 9.828125 C-4.14417969 10.21484375 -4.56570312 10.6015625 -5 11 C-8.875 9.25 -8.875 9.25 -10 7 C-7.03 7.495 -7.03 7.495 -4 8 C-3.896875 7.4225 -3.79375 6.845 -3.6875 6.25 C-2.90207202 3.67950842 -1.69495803 2.06342716 0 0 Z " fill="#C24A4D" transform="translate(180,336)"/>
<path d="M0 0 C7.48291572 6.15034169 7.48291572 6.15034169 10 10 C9.67 10.66 9.34 11.32 9 12 C7.35 11.67 5.7 11.34 4 11 C3.87625 10.195625 3.7525 9.39125 3.625 8.5625 C3.315625 7.2940625 3.315625 7.2940625 3 6 C2.34 5.67 1.68 5.34 1 5 C0.375 2.4375 0.375 2.4375 0 0 Z " fill="#C74547" transform="translate(136,177)"/>
<path d="M0 0 C7.48291572 6.15034169 7.48291572 6.15034169 10 10 C8.35 10 6.7 10 5 10 C4.67 9.34 4.34 8.68 4 8 C4.33 7.34 4.66 6.68 5 6 C3.02 5.34 1.04 4.68 -1 4 C-0.67 2.68 -0.34 1.36 0 0 Z " fill="#C14145" transform="translate(209,250)"/>
<path d="M0 0 C1.12894876 0.93274109 2.25300876 1.87140122 3.375 2.8125 C4.00148438 3.33457031 4.62796875 3.85664063 5.2734375 4.39453125 C7 6 7 6 9 9 C6.03 8.505 6.03 8.505 3 8 C3 7.34 3 6.68 3 6 C1.35 6.33 -0.3 6.66 -2 7 C-1.67 6.21625 -1.34 5.4325 -1 4.625 C0.11866511 2.15667503 0.11866511 2.15667503 0 0 Z " fill="#C74447" transform="translate(111,152)"/>
<path d="M0 0 C1.65 0 3.3 0 5 0 C1.6189962 4.13621084 -1.66590534 7.81316569 -6 11 C-5.62403791 8.21788056 -5.32681541 6.4120716 -3.5625 4.1875 C-2 3 -2 3 0 3 C0 2.01 0 1.02 0 0 Z " fill="#D26D6E" transform="translate(150,102)"/>
<path d="M0 0 C1.65 0 3.3 0 5 0 C5.33 0.66 5.66 1.32 6 2 C6.66 2.33 7.32 2.66 8 3 C7.67 3.66 7.34 4.32 7 5 C7.99 5.33 8.98 5.66 10 6 C9.67 7.32 9.34 8.64 9 10 C7.49702124 8.52386015 5.99768715 7.04400843 4.5 5.5625 C3.6646875 4.73878906 2.829375 3.91507812 1.96875 3.06640625 C0 1 0 1 0 0 Z " fill="#D26B6B" transform="translate(208,119)"/>
<path d="M0 0 C1 3 1 3 0 6 C-0.66 6 -1.32 6 -2 6 C-2.61875 6.639375 -3.2375 7.27875 -3.875 7.9375 C-6.09568371 10.09286948 -7.07482517 10.4186368 -10 11 C-6.79239749 7.19364503 -3.59253891 3.45436433 0 0 Z " fill="#CB504F" transform="translate(193,343)"/>
<path d="M0 0 C1.828125 0.83984375 1.828125 0.83984375 2.828125 2.83984375 C1.178125 2.50984375 -0.471875 2.17984375 -2.171875 1.83984375 C-2.501875 3.48984375 -2.831875 5.13984375 -3.171875 6.83984375 C-6.921875 7.96484375 -6.921875 7.96484375 -9.171875 6.83984375 C-8.10471428 5.63778911 -7.01749163 4.45352042 -5.921875 3.27734375 C-5.31859375 2.61605469 -4.7153125 1.95476562 -4.09375 1.2734375 C-2.171875 -0.16015625 -2.171875 -0.16015625 0 0 Z " fill="#CE5F61" transform="translate(315.171875,223.16015625)"/>
<path d="M0 0 C1.0828125 0.495 1.0828125 0.495 2.1875 1 C5.01697427 2.00603529 7.02895466 2.16977402 10 2 C10 3.98 10 5.96 10 8 C7 8 7 8 5.17578125 6.50390625 C4.56089844 5.86324219 3.94601563 5.22257812 3.3125 4.5625 C2.68988281 3.92441406 2.06726563 3.28632813 1.42578125 2.62890625 C0 1 0 1 0 0 Z " fill="#C03F41" transform="translate(133,306)"/>
<path d="M0 0 C0.99 0.66 1.98 1.32 3 2 C2.82374165 4.37948772 2.30280227 5.70225849 0.59765625 7.37890625 C-0.90649092 8.62115486 -2.45129851 9.81376056 -4 11 C-4 9.35 -4 7.7 -4 6 C-2.68 5.34 -1.36 4.68 0 4 C0 2.68 0 1.36 0 0 Z " fill="#C64243" transform="translate(282,298)"/>
<path d="M0 0 C2.31 0.66 4.62 1.32 7 2 C7 2.66 7 3.32 7 4 C8.65 4.33 10.3 4.66 12 5 C11.01 6.485 11.01 6.485 10 8 C6.40094092 7.44449305 5.00090201 6.25112752 2.75 3.4375 C2.22921875 2.79683594 1.7084375 2.15617187 1.171875 1.49609375 C0.78515625 1.00238281 0.3984375 0.50867188 0 0 Z " fill="#C14D52" transform="translate(248,256)"/>
<path d="M0 0 C0.33 0.66 0.66 1.32 1 2 C-0.1875 4.5625 -0.1875 4.5625 -2 7 C-3.9375 7.5625 -3.9375 7.5625 -6 8 C-8.22977996 9.97901574 -8.22977996 9.97901574 -10 12 C-10.66 11.67 -11.32 11.34 -12 11 C-8.17426612 7.07503959 -4.38002676 3.31820209 0 0 Z " fill="#D16F71" transform="translate(203,185)"/>
<path d="M0 0 C1.65 0 3.3 0 5 0 C4.06725891 1.12894876 3.12859878 2.25300876 2.1875 3.375 C1.66542969 4.00148438 1.14335937 4.62796875 0.60546875 5.2734375 C-1 7 -1 7 -4 9 C-4 7.02 -4 5.04 -4 3 C-2.68 3 -1.36 3 0 3 C0 2.01 0 1.02 0 0 Z " fill="#D16768" transform="translate(134,118)"/>
<path d="M0 0 C0.33 0.66 0.66 1.32 1 2 C1.66 2 2.32 2 3 2 C1.4169423 6.2742558 -1.50568404 8.26531794 -5 11 C-5 9.68 -5 8.36 -5 7 C-4.34 7 -3.68 7 -3 7 C-2.690625 6.030625 -2.38125 5.06125 -2.0625 4.0625 C-1 1 -1 1 0 0 Z " fill="#C54549" transform="translate(189,326)"/>
<path d="M0 0 C0.33 2.31 0.66 4.62 1 7 C-2 7 -2 7 -4.1875 5.125 C-6 3 -6 3 -6 1 C-3 0 -3 0 0 0 Z " fill="#C63F43" transform="translate(165,330)"/>
<path d="M0 0 C0.33 0.66 0.66 1.32 1 2 C1.66 2 2.32 2 3 2 C1.4169423 6.2742558 -1.50568404 8.26531794 -5 11 C-5 9.68 -5 8.36 -5 7 C-4.34 7 -3.68 7 -3 7 C-2.690625 6.030625 -2.38125 5.06125 -2.0625 4.0625 C-1 1 -1 1 0 0 Z " fill="#C54548" transform="translate(333,182)"/>
<path d="M0 0 C0.66 0 1.32 0 2 0 C2 0.99 2 1.98 2 3 C2.66 3.33 3.32 3.66 4 4 C5.95216435 5.95216435 6.84826645 7.53199953 8 10 C5 10 5 10 3.359375 8.57421875 C2.82828125 7.95160156 2.2971875 7.32898438 1.75 6.6875 C1.20859375 6.07261719 0.6671875 5.45773438 0.109375 4.82421875 C-0.25671875 4.22222656 -0.6228125 3.62023437 -1 3 C-0.67 2.01 -0.34 1.02 0 0 Z " fill="#C3373A" transform="translate(7,176)"/>
<path d="M0 0 C0.33 0.66 0.66 1.32 1 2 C-0.4184566 5.15212579 -1.30499119 6.68724603 -4.5 8.125 C-5.325 8.41375 -6.15 8.7025 -7 9 C-8.77277259 10.52007842 -8.77277259 10.52007842 -10 12 C-10.66 11.67 -11.32 11.34 -12 11 C-8.04 7.37 -4.08 3.74 0 0 Z " fill="#CD6265" transform="translate(219,169)"/>
<path d="M0 0 C1.32 0.66 2.64 1.32 4 2 C3.67 3.65 3.34 5.3 3 7 C3.99 7.33 4.98 7.66 6 8 C5.67 8.99 5.34 9.98 5 11 C2.69 8.69 0.38 6.38 -2 4 C-1.34 2.68 -0.68 1.36 0 0 Z " fill="#D36565" transform="translate(153,388)"/>
<path d="M0 0 C1.32 0.66 2.64 1.32 4 2 C3.67 3.65 3.34 5.3 3 7 C3.99 7.33 4.98 7.66 6 8 C5.67 8.99 5.34 9.98 5 11 C2.69 8.69 0.38 6.38 -2 4 C-1.34 2.68 -0.68 1.36 0 0 Z " fill="#D36867" transform="translate(137,372)"/>
<path d="M0 0 C0.66 0.33 1.32 0.66 2 1 C1.65120368 4.25543229 0.97866739 5.01873107 -1.5625 7.25 C-2.7690625 8.11625 -2.7690625 8.11625 -4 9 C-4 8.01 -4 7.02 -4 6 C-4.66 6 -5.32 6 -6 6 C-5.34 4.68 -4.68 3.36 -4 2 C-2.68 2.66 -1.36 3.32 0 4 C0 2.68 0 1.36 0 0 Z " fill="#C84040" transform="translate(214,368)"/>
<path d="M0 0 C1.32 0.66 2.64 1.32 4 2 C3.67 3.65 3.34 5.3 3 7 C3.99 7.33 4.98 7.66 6 8 C5.67 8.99 5.34 9.98 5 11 C2.69 8.69 0.38 6.38 -2 4 C-1.34 2.68 -0.68 1.36 0 0 Z " fill="#D36767" transform="translate(121,356)"/>
<path d="M0 0 C1.32 0.66 2.64 1.32 4 2 C3.67 3.65 3.34 5.3 3 7 C3.99 7.33 4.98 7.66 6 8 C5.67 8.99 5.34 9.98 5 11 C2.69 8.69 0.38 6.38 -2 4 C-1.34 2.68 -0.68 1.36 0 0 Z " fill="#D46764" transform="translate(57,292)"/>
<path d="M0 0 C7.49756098 1.83902439 7.49756098 1.83902439 10 5 C10.66 5.66 11.32 6.32 12 7 C11.01 7.66 10.02 8.32 9 9 C7.49704815 7.69088122 5.99770689 6.37761608 4.5 5.0625 C3.6646875 4.33160156 2.829375 3.60070312 1.96875 2.84765625 C1.3190625 2.23792969 0.669375 1.62820312 0 1 C0 0.67 0 0.34 0 0 Z " fill="#CA5155" transform="translate(17,191)"/>
<path d="M0 0 C0 4.27100573 -2.31559898 5.79181342 -5 9 C-5.85279338 11.21735439 -5.85279338 11.21735439 -6 13 C-7.65 13 -9.3 13 -11 13 C-7.61227103 8.30840284 -4.21814817 3.9700218 0 0 Z " fill="#D06C6D" transform="translate(52,120)"/>
<path d="M0 0 C-1.5830577 4.2742558 -4.50568404 6.26531794 -8 9 C-8.375 6.75 -8.375 6.75 -8 4 C-3.02702703 0 -3.02702703 0 0 0 Z " fill="#C44749" transform="translate(254,332)"/>
<path d="M0 0 C0.66 0.33 1.32 0.66 2 1 C1.3125 2.875 1.3125 2.875 0 5 C-2.375 6.0625 -2.375 6.0625 -5 7 C-6.36365283 7.95824253 -7.70794169 8.94721175 -9 10 C-7.61811547 6.78956118 -6.07578097 4.95063635 -3.375 2.75 C-2.74335938 2.22921875 -2.11171875 1.7084375 -1.4609375 1.171875 C-0.73777344 0.59179688 -0.73777344 0.59179688 0 0 Z " fill="#CE6162" transform="translate(161,12)"/>
<path d="M0 0 C2.31 0.66 4.62 1.32 7 2 C6.67 3.98 6.34 5.96 6 8 C3.69 6.02 1.38 4.04 -1 2 C-0.67 1.34 -0.34 0.68 0 0 Z " fill="#CE5C5D" transform="translate(223,132)"/>
<path d="M0 0 C0.66 0.99 1.32 1.98 2 3 C1.34 4.32 0.68 5.64 0 7 C-0.99 7 -1.98 7 -3 7 C-3.66 6.34 -4.32 5.68 -5 5 C-3.35 3.35 -1.7 1.7 0 0 Z " fill="#C84848" transform="translate(252,284)"/>
<path d="M0 0 C0.99 0 1.98 0 3 0 C1.4169423 4.2742558 -1.50568404 6.26531794 -5 9 C-5 7.68 -5 6.36 -5 5 C-4.34 5 -3.68 5 -3 5 C-3 4.34 -3 3.68 -3 3 C-2.34 3 -1.68 3 -1 3 C-0.67 2.01 -0.34 1.02 0 0 Z " fill="#C4484C" transform="translate(317,200)"/>
<path d="M0 0 C1.12894876 0.93274109 2.25300876 1.87140122 3.375 2.8125 C4.00148438 3.33457031 4.62796875 3.85664063 5.2734375 4.39453125 C7 6 7 6 9 9 C6 9 6 9 4 8 C4 7.34 4 6.68 4 6 C3.34 6 2.68 6 2 6 C1.34 4.02 0.68 2.04 0 0 Z " fill="#C24E4B" transform="translate(330,156)"/>
<path d="M0 0 C2.875 -0.125 2.875 -0.125 6 0 C6.66 0.66 7.32 1.32 8 2 C7.625 4.125 7.625 4.125 7 6 C6.38125 5.2265625 6.38125 5.2265625 5.75 4.4375 C5.1725 3.963125 4.595 3.48875 4 3 C1.83700789 3.22757731 1.83700789 3.22757731 0 4 C0 2.68 0 1.36 0 0 Z " fill="#D27174" transform="translate(170,83)"/>
<path d="M0 0 C0.33 0.66 0.66 1.32 1 2 C1.66 2 2.32 2 3 2 C1.93453047 4.13093906 0.70840281 5.36587557 -1 7 C-2.65 5.35 -4.3 3.7 -6 2 C-5.01 1.67 -4.02 1.34 -3 1 C-2.67 1.33 -2.34 1.66 -2 2 C-1.34 1.34 -0.68 0.68 0 0 Z " fill="#C34142" transform="translate(156,322)"/>
<path d="M0 0 C0 3.66842255 -0.79029126 5.10451959 -3 8 C-5.6875 8.8125 -5.6875 8.8125 -8 9 C-7.04270084 7.87411986 -6.08412105 6.7493285 -5.125 5.625 C-4.59132813 4.99851563 -4.05765625 4.37203125 -3.5078125 3.7265625 C-2.38567993 2.44163349 -1.20628025 1.20628025 0 0 Z " fill="#C95D61" transform="translate(305,231)"/>
<path d="M0 0 C1.98 0 3.96 0 6 0 C4.60667426 3.36720387 3.0210714 4.9859524 0 7 C-0.33 6.01 -0.66 5.02 -1 4 C-0.01 4 0.98 4 2 4 C2 3.34 2 2.68 2 2 C1.34 2 0.68 2 0 2 C0 1.34 0 0.68 0 0 Z " fill="#C54444" transform="translate(305,209)"/>
<path d="M0 0 C1.32 1.65 2.64 3.3 4 5 C2.68 5.99 1.36 6.98 0 8 C-0.66 7.34 -1.32 6.68 -2 6 C-2 5.01 -2 4.02 -2 3 C-1.34 3 -0.68 3 0 3 C0 2.01 0 1.02 0 0 Z " fill="#C74D51" transform="translate(344,169)"/>
<path d="M0 0 C0.66 0.33 1.32 0.66 2 1 C1.34 3.31 0.68 5.62 0 8 C-2.97 7.505 -2.97 7.505 -6 7 C-4.71937515 5.2925002 -3.38232443 3.62626404 -2 2 C-1.34 2 -0.68 2 0 2 C0 1.34 0 0.68 0 0 Z " fill="#CE5657" transform="translate(12,160)"/>
<path d="M0 0 C4.75 0.875 4.75 0.875 7 2 C7.625 5.0625 7.625 5.0625 8 8 C6.85073734 7.04578192 5.70569459 6.08647955 4.5625 5.125 C3.92441406 4.59132813 3.28632813 4.05765625 2.62890625 3.5078125 C1 2 1 2 0 0 Z " fill="#D67273" transform="translate(192,103)"/>
<path d="M0 0 C-0.33 2.31 -0.66 4.62 -1 7 C-2.98 7.33 -4.96 7.66 -7 8 C-5.84316054 5.30070793 -3.38550714 0 0 0 Z " fill="#D2696A" transform="translate(143,30)"/>
<path d="M0 0 C0.66 0 1.32 0 2 0 C2.33 0.99 2.66 1.98 3 3 C2.67 3.66 2.34 4.32 2 5 C-0.32156597 5.40729228 -2.6568787 5.74438677 -5 6 C-3.38405168 3.95880212 -1.7143618 1.95927063 0 0 Z " fill="#C03A3A" transform="translate(148,25)"/>
<path d="M0 0 C1.12894876 0.93274109 2.25300876 1.87140122 3.375 2.8125 C4.00148438 3.33457031 4.62796875 3.85664063 5.2734375 4.39453125 C7 6 7 6 9 9 C7.35 8.67 5.7 8.34 4 8 C4 7.01 4 6.02 4 5 C3.01 5 2.02 5 1 5 C0.67 3.35 0.34 1.7 0 0 Z " fill="#D97E7D" transform="translate(102,291)"/>
<path d="M0 0 C0.33 0.99 0.66 1.98 1 3 C-0.65 4.65 -2.3 6.3 -4 8 C-4.99 7.67 -5.98 7.34 -7 7 C-4.69 4.69 -2.38 2.38 0 0 Z " fill="#C35456" transform="translate(260,276)"/>
<path d="M0 0 C2.31 0.66 4.62 1.32 7 2 C7 3.32 7 4.64 7 6 C7.66 6.33 8.32 6.66 9 7 C6 7 6 7 4.39453125 5.46875 C3.87246094 4.8190625 3.35039062 4.169375 2.8125 3.5 C2.28269531 2.8503125 1.75289062 2.200625 1.20703125 1.53125 C0.80871094 1.0259375 0.41039062 0.520625 0 0 Z " fill="#C34D50" transform="translate(232,240)"/>
<path d="M0 0 C2.31 1.98 4.62 3.96 7 6 C6.01 6.33 5.02 6.66 4 7 C3.34 6.67 2.68 6.34 2 6 C2 5.34 2 4.68 2 4 C0.68 3.34 -0.64 2.68 -2 2 C-1.34 1.34 -0.68 0.68 0 0 Z " fill="#D06A6D" transform="translate(325,233)"/>
<path d="M0 0 C2.31 0.66 4.62 1.32 7 2 C7 3.32 7 4.64 7 6 C7.66 6.33 8.32 6.66 9 7 C6 7 6 7 4.39453125 5.46875 C3.87246094 4.8190625 3.35039062 4.169375 2.8125 3.5 C2.28269531 2.8503125 1.75289062 2.200625 1.20703125 1.53125 C0.80871094 1.0259375 0.41039062 0.520625 0 0 Z " fill="#C34D50" transform="translate(216,224)"/>
<path d="M0 0 C-0.34879632 3.25543229 -1.02133261 4.01873107 -3.5625 6.25 C-4.366875 6.8275 -5.17125 7.405 -6 8 C-5.62403791 5.21788056 -5.32681541 3.4120716 -3.5625 1.1875 C-2 0 -2 0 0 0 Z " fill="#CE6464" transform="translate(166,89)"/>
<path d="M0 0 C0 0.99 0 1.98 0 3 C-0.99 3.495 -0.99 3.495 -2 4 C-2.268125 4.66 -2.53625 5.32 -2.8125 6 C-4 8 -4 8 -6.625 8.75 C-7.40875 8.8325 -8.1925 8.915 -9 9 C-8.06725891 7.87105124 -7.12859878 6.74699124 -6.1875 5.625 C-5.66542969 4.99851562 -5.14335938 4.37203125 -4.60546875 3.7265625 C-3 2 -3 2 0 0 Z " fill="#D17374" transform="translate(115,58)"/>
<path d="M0 0 C1 2 1 2 1 5 C-1.64877696 6.41898766 -4.08014819 7.31911019 -7 8 C-6.02133662 6.85373678 -5.04205413 5.70800212 -4.0625 4.5625 C-3.51722656 3.92441406 -2.97195312 3.28632813 -2.41015625 2.62890625 C-1.63204305 1.73008851 -0.84063472 0.84063472 0 0 Z " fill="#CA5455" transform="translate(238,298)"/>
<path d="M0 0 C1.32 0.66 2.64 1.32 4 2 C3.60196439 4.88575819 3.20990931 5.82189513 0.9375 7.75 C-0.0215625 8.36875 -0.0215625 8.36875 -1 9 C-1 7.68 -1 6.36 -1 5 C-0.34 5 0.32 5 1 5 C0.67 3.35 0.34 1.7 0 0 Z " fill="#C25456" transform="translate(236,277)"/>
<path d="M0 0 C0.66 0 1.32 0 2 0 C0.4169423 4.2742558 -2.50568404 6.26531794 -6 9 C-5.4409112 5.75728494 -4.5867822 4.06942576 -2 2 C-1.34 2 -0.68 2 0 2 C0 1.34 0 0.68 0 0 Z " fill="#C24F53" transform="translate(337,247)"/>
<path d="M0 0 C1.04449911 3.13349732 0.93423645 3.98968256 0 7 C-1.98 7 -3.96 7 -6 7 C-4.02 4.69 -2.04 2.38 0 0 Z " fill="#C64F51" transform="translate(292,244)"/>
<path d="M0 0 C2.375 0.25 2.375 0.25 5 1 C6.1875 3 6.1875 3 7 5 C7.66 5.33 8.32 5.66 9 6 C4.58763974 6 3.21615077 3.9302707 0 1 C0 0.67 0 0.34 0 0 Z " fill="#C55B5B" transform="translate(62,236)"/>
<path d="M0 0 C0.33 1.32 0.66 2.64 1 4 C-0.98 5.32 -2.96 6.64 -5 8 C-5.66 7.67 -6.32 7.34 -7 7 C-4.69 4.69 -2.38 2.38 0 0 Z " fill="#C65453" transform="translate(26,229)"/>
<path d="M0 0 C-0.34879632 3.25543229 -1.02133261 4.01873107 -3.5625 6.25 C-4.366875 6.8275 -5.17125 7.405 -6 8 C-6.33 7.01 -6.66 6.02 -7 5 C-6.34 5 -5.68 5 -5 5 C-5 4.34 -5 3.68 -5 3 C-2.46153846 0 -2.46153846 0 0 0 Z " fill="#C24747" transform="translate(295,224)"/>
<path d="M0 0 C0.99 0 1.98 0 3 0 C3 0.99 3 1.98 3 3 C4.32 3.66 5.64 4.32 7 5 C6.67 6.32 6.34 7.64 6 9 C4.99406757 7.8803014 3.9954151 6.7540588 3 5.625 C2.443125 4.99851563 1.88625 4.37203125 1.3125 3.7265625 C0 2 0 2 0 0 Z " fill="#D0696A" transform="translate(44,216)"/>
<path d="M0 0 C-1.49097658 3.7952131 -3.75700849 5.61042731 -7 8 C-6.65930765 4.84859577 -6.41923159 3.39218439 -4.0625 1.1875 C-2 0 -2 0 0 0 Z " fill="#C4494E" transform="translate(304,216)"/>
<path d="M0 0 C1.32 0.33 2.64 0.66 4 1 C4 1.66 4 2.32 4 3 C3.34 3 2.68 3 2 3 C2 4.65 2 6.3 2 8 C0.68 6.68 -0.64 5.36 -2 4 C-1.34 4 -0.68 4 0 4 C0 2.68 0 1.36 0 0 Z " fill="#D65255" transform="translate(32,200)"/>
<path d="M0 0 C1.14926266 0.95421808 2.29430541 1.91352045 3.4375 2.875 C4.07558594 3.40867187 4.71367187 3.94234375 5.37109375 4.4921875 C7 6 7 6 8 8 C6.35 7.67 4.7 7.34 3 7 C2.67 6.01 2.34 5.02 2 4 C1.01 3.67 0.02 3.34 -1 3 C-0.67 2.01 -0.34 1.02 0 0 Z " fill="#DA797A" transform="translate(162,351)"/>
<path d="M0 0 C0.99 0 1.98 0 3 0 C3 0.66 3 1.32 3 2 C3.61875 2.268125 4.2375 2.53625 4.875 2.8125 C7 4 7 4 9 7 C6 7 6 7 4.39453125 5.46875 C3.87246094 4.8190625 3.35039062 4.169375 2.8125 3.5 C2.28269531 2.8503125 1.75289062 2.200625 1.20703125 1.53125 C0.80871094 1.0259375 0.41039062 0.520625 0 0 Z " fill="#C35153" transform="translate(240,248)"/>
<path d="M0 0 C3.36720387 1.39332574 4.9859524 2.9789286 7 6 C6.01 6 5.02 6 4 6 C4 5.34 4 4.68 4 4 C2.35 4.33 0.7 4.66 -1 5 C-0.67 3.35 -0.34 1.7 0 0 Z " fill="#C34346" transform="translate(157,199)"/>
<path d="M0 0 C1.65 0 3.3 0 5 0 C5.33 2.31 5.66 4.62 6 7 C2.95529127 5.47764564 1.79729052 2.81575514 0 0 Z " fill="#D2696A" transform="translate(233,144)"/>
<path d="M0 0 C3.36720387 1.39332574 4.9859524 2.9789286 7 6 C5.35 6.33 3.7 6.66 2 7 C2.33 5.68 2.66 4.36 3 3 C2.01 3 1.02 3 0 3 C0 2.01 0 1.02 0 0 Z " fill="#BF4346" transform="translate(221,263)"/>
<path d="M0 0 C0.66 0 1.32 0 2 0 C2.33 0.66 2.66 1.32 3 2 C5.01669827 3.13350534 5.01669827 3.13350534 7 4 C6.67 4.66 6.34 5.32 6 6 C4.35 5.67 2.7 5.34 1 5 C0.67 3.35 0.34 1.7 0 0 Z " fill="#C52D2E" transform="translate(32,225)"/>
<path d="M0 0 C0.99 0.33 1.98 0.66 3 1 C2.01 1.495 2.01 1.495 1 2 C0.31867549 3.66072849 -0.34742127 5.327767 -1 7 C-1.66 7.66 -2.32 8.32 -3 9 C-3 7.02 -3 5.04 -3 3 C-2.34 3 -1.68 3 -1 3 C-0.67 2.01 -0.34 1.02 0 0 Z " fill="#CC393D" transform="translate(124,166)"/>
<path d="M0 0 C1.65 0 3.3 0 5 0 C4.19152271 1.16945792 3.37810888 2.33550461 2.5625 3.5 C2.11003906 4.1496875 1.65757813 4.799375 1.19140625 5.46875 C0.79824219 5.9740625 0.40507813 6.479375 0 7 C-0.33 7 -0.66 7 -1 7 C-0.67 4.69 -0.34 2.38 0 0 Z " fill="#D36E70" transform="translate(109,143)"/>
<path d="M0 0 C2.31 1.98 4.62 3.96 7 6 C6.01 6.33 5.02 6.66 4 7 C3.34 6.67 2.68 6.34 2 6 C2 5.34 2 4.68 2 4 C1.34 4 0.68 4 0 4 C0 2.68 0 1.36 0 0 Z " fill="#C0514C" transform="translate(229,55)"/>
<path d="M0 0 C1.14926266 0.95421808 2.29430541 1.91352045 3.4375 2.875 C4.07558594 3.40867187 4.71367188 3.94234375 5.37109375 4.4921875 C7 6 7 6 8 8 C5.125 7.375 5.125 7.375 2 6 C0.625 2.875 0.625 2.875 0 0 Z " fill="#DC8583" transform="translate(117,306)"/>
<path d="M0 0 C1.65 0.33 3.3 0.66 5 1 C5 2.65 5 4.3 5 6 C3.02 4.68 1.04 3.36 -1 2 C-0.67 1.34 -0.34 0.68 0 0 Z " fill="#C14649" transform="translate(71,243)"/>
<path d="M0 0 C0.66 0 1.32 0 2 0 C0.50902342 3.7952131 -1.75700849 5.61042731 -5 8 C-5 7.01 -5 6.02 -5 5 C-4.34 5 -3.68 5 -3 5 C-2.5359375 4.0409375 -2.5359375 4.0409375 -2.0625 3.0625 C-1 1 -1 1 0 0 Z " fill="#C44E52" transform="translate(286,232)"/>
<path d="M0 0 C2.3125 0.1875 2.3125 0.1875 5 1 C6.8125 3.5625 6.8125 3.5625 8 6 C5 6 5 6 3.61328125 4.6875 C2.40885417 3.125 1.20442708 1.5625 0 0 Z " fill="#BC4144" transform="translate(51,224)"/>
<path d="M0 0 C0.33 0.66 0.66 1.32 1 2 C0.01 3.32 -0.98 4.64 -2 6 C-3.32 5.67 -4.64 5.34 -6 5 C-4.02 3.35 -2.04 1.7 0 0 Z " fill="#CC6769" transform="translate(99,74)"/>
<path d="M0 0 C-1.39332574 3.36720387 -2.9789286 4.9859524 -6 7 C-5.67 5.02 -5.34 3.04 -5 1 C-2 0 -2 0 0 0 Z " fill="#C44C50" transform="translate(227,359)"/>
<path d="M0 0 C2.0625 0.4375 2.0625 0.4375 4 1 C4 2.32 4 3.64 4 5 C3.01 4.67 2.02 4.34 1 4 C1 3.34 1 2.68 1 2 C0.34 1.67 -0.32 1.34 -1 1 C-0.67 0.67 -0.34 0.34 0 0 Z " fill="#CD3A3D" transform="translate(246,290)"/>
<path d="M0 0 C2.375 0.1875 2.375 0.1875 5 1 C6.3125 3.5625 6.3125 3.5625 7 6 C1.125 2.25 1.125 2.25 0 0 Z " fill="#C86465" transform="translate(77,251)"/>
<path d="M0 0 C5.75 2.625 5.75 2.625 8 6 C5.21788056 5.62403791 3.4120716 5.32681541 1.1875 3.5625 C0 2 0 2 0 0 Z " fill="#CA5B5A" transform="translate(52,243)"/>
<path d="M0 0 C0.625 1.875 0.625 1.875 1 4 C0.34 4.66 -0.32 5.32 -1 6 C-3.125 5.625 -3.125 5.625 -5 5 C-3.35 3.35 -1.7 1.7 0 0 Z " fill="#C45151" transform="translate(18,237)"/>
<path d="M0 0 C0.66 0 1.32 0 2 0 C3.38938077 1.96147874 4.7260411 3.96166576 6 6 C5.01 6 4.02 6 3 6 C0.8125 3.5 0.8125 3.5 -1 1 C-0.67 0.67 -0.34 0.34 0 0 Z " fill="#C34C4F" transform="translate(206,212)"/>
<path d="M0 0 C2.475 0.495 2.475 0.495 5 1 C5.33 2.32 5.66 3.64 6 5 C3 5 3 5 1.3125 3.625 C0 2 0 2 0 0 Z " fill="#BE3C3D" transform="translate(39,211)"/>
<path d="M0 0 C3.16115776 1.36983503 3.9927092 1.9890638 6 5 C5.01 5.495 5.01 5.495 4 6 C4 5.34 4 4.68 4 4 C2.68 4.33 1.36 4.66 0 5 C0 3.35 0 1.7 0 0 Z " fill="#C34844" transform="translate(290,117)"/>
<path d="M0 0 C0.66 0.33 1.32 0.66 2 1 C0.63016497 4.16115776 0.0109362 4.9927092 -3 7 C-3 5.68 -3 4.36 -3 3 C-2.34 3 -1.68 3 -1 3 C-0.67 2.01 -0.34 1.02 0 0 Z " fill="#C1484D" transform="translate(197,320)"/>
<path d="M0 0 C1.65 0 3.3 0 5 0 C4.34 1.32 3.68 2.64 3 4 C2.01 4 1.02 4 0 4 C0 2.68 0 1.36 0 0 Z " fill="#CB383D" transform="translate(144,314)"/>
<path d="M0 0 C0.66 0 1.32 0 2 0 C1.6875 2.375 1.6875 2.375 1 5 C0.01 5.66 -0.98 6.32 -2 7 C-2.125 4.625 -2.125 4.625 -2 2 C-1.34 1.34 -0.68 0.68 0 0 Z " fill="#C64445" transform="translate(296,286)"/>
<path d="M0 0 C1.98 1.65 3.96 3.3 6 5 C4.02 5.99 4.02 5.99 2 7 C1.34 4.69 0.68 2.38 0 0 Z " fill="#C14245" transform="translate(230,271)"/>
<path d="M0 0 C0 3 0 3 -1 6 C-2.65 6.33 -4.3 6.66 -6 7 C-4.02 4.69 -2.04 2.38 0 0 Z " fill="#CD6362" transform="translate(272,264)"/>
<path d="M0 0 C0.66 0.33 1.32 0.66 2 1 C1.34 2.65 0.68 4.3 0 6 C-1.32 5.67 -2.64 5.34 -4 5 C-2.68 3.35 -1.36 1.7 0 0 Z " fill="#C65B5F" transform="translate(224,163)"/>
<path d="M0 0 C0.99 0.33 1.98 0.66 3 1 C2.67 1.99 2.34 2.98 2 4 C-1.0625 5.1875 -1.0625 5.1875 -4 6 C-3.0022242 3.00667261 -2.2477975 2.05233685 0 0 Z " fill="#C22B2C" transform="translate(116,58)"/>
<path d="M0 0 C1.65 1.65 3.3 3.3 5 5 C4.34 5 3.68 5 3 5 C3 5.66 3 6.32 3 7 C2.34 7 1.68 7 1 7 C0.67 4.69 0.34 2.38 0 0 Z " fill="#C44A47" transform="translate(205,31)"/>
</svg>
